<svg xmlns="http://www.w3.org/2000/svg"
shape-rendering="geometricPrecision"
width="4000" height="4000" viewBox="0 0 1024 1024"><rect width="100%" height="100%" fill="#E8F8EB" />
  <metadata>null</metadata>

<path d="
M 79.447 496.947
C 80.198 496.153 82.411 496.327 83.484 496.32
C 87.037 496.299 90.614 496.225 94.145 496.666
C 94.017 500.143 94.535 503.62 94.272 507.098
C 100.8 507.251 107.447 506.928 114.001 506.914
C 129.835 506.88 145.667 506.882 161.5 506.943
C 168.917 506.971 176.329 506.861 183.742 506.91
C 186.227 506.927 188.716 506.979 191.201 506.93
C 192.165 506.912 193.406 507.168 194.334 506.931
C 194.417 503.507 194.748 500.087 194.624 496.655
C 195.319 496.083 197.101 496.408 197.998 496.386
C 201.287 496.305 205.784 495.547 208.951 496.457
C 208.186 505.001 208.802 513.917 208.766 522.5
C 208.756 524.833 208.75 527.165 208.734 529.497
C 208.73 530.081 208.911 531.463 208.562 531.926
C 203.879 531.844 199.159 532.145 194.482 531.959
C 194.125 528.571 194.498 525.138 194.22 521.749
C 171.854 521.209 149.412 521.326 127.045 521.525
C 116.134 521.621 105.109 521.126 94.221 521.806
C 93.854 524.167 94.026 526.667 93.961 529.055
C 93.939 529.834 94.303 531.283 93.791 531.911
C 89.197 531.632 84.542 531.832 79.943 531.927
C 79.409 531.237 79.686 529.863 79.698 529.003
C 79.728 526.837 79.682 524.668 79.676 522.503
C 79.653 513.992 79.362 505.449 79.447 496.947 Z"
opacity="1" fill="rgb(49,165,105)" fill-rule="evenodd" />
<path d="
M 89.299 470.963
C 92.655 474.424 96.495 477.465 100.057 480.714
C 101.265 481.815 103.695 483.114 104.308 484.663
C 104.911 486.189 104.422 488.794 104.428 490.439
C 104.434 491.736 104.387 493.058 104.48 494.35
C 104.506 494.71 104.759 495.601 104.521 495.891
C 101.066 492.198 96.917 489.022 93.272 485.493
C 92.231 484.486 89.844 482.902 89.412 481.504
C 89.097 480.487 89.32 479.139 89.294 478.077
C 89.235 475.7 89.269 473.339 89.299 470.963 Z"
opacity="1" fill="rgb(46,151,110)" fill-rule="evenodd" />
<path d="
M 89.629 436.719
C 94.742 440.115 99.273 444.437 103.88 448.482
C 109.095 453.059 114.404 457.527 119.59 462.138
C 123.818 465.897 128.064 469.624 132.322 473.35
C 134.568 475.316 137.065 477.075 139.034 479.334
C 139.583 480.855 139.244 482.9 139.246 484.504
C 139.25 488.004 139.255 491.505 139.233 495.005
C 139.225 496.305 138.664 499.529 139.279 500.608
C 136 500.803 132.621 500.43 129.322 500.506
C 126.794 500.564 123.824 501.083 121.343 500.708
C 120.961 496.388 121.938 491.774 121.025 487.521
C 119.044 484.471 115.328 482.193 112.614 479.828
C 107.375 475.263 102.246 470.588 97.169 465.843
C 94.981 463.798 91.143 461.235 89.833 458.538
C 89.149 451.311 89.962 443.953 89.629 436.719 Z"
opacity="1" fill="rgb(26,73,77)" fill-rule="evenodd" />
<path d="
M 113.311 549.584
C 115.75 549.683 119.122 549.859 121.494 549.231
C 121.692 547.565 121.39 545.689 121.39 543.995
C 121.39 538.756 121.171 533.51 121.317 528.272
C 126.901 526.823 133.53 528.245 139.275 528.039
C 138.546 542.74 140.146 557.597 139.25 572.279
C 138.714 572.187 137.971 571.295 137.536 570.965
C 135.815 569.66 134.24 568.196 132.585 566.811
C 128.339 563.262 124.165 559.583 120.035 555.898
C 117.753 553.862 115.167 552.03 113.311 549.584 Z"
opacity="1" fill="rgb(28,66,74)" fill-rule="evenodd" />
<path d="
M 127.938 444.588
C 129.505 434.28 140.461 427.441 150.397 431.21
C 158.076 434.122 162.27 442.547 161.091 450.436
C 158.721 466.296 135.36 469.166 129.022 454.466
C 127.725 451.456 127.449 447.81 127.938 444.588 Z"
opacity="1" fill="rgb(28,66,73)" fill-rule="evenodd" />
<path d="
M 149.421 479.576
C 149.454 479.423 149.487 479.269 149.52 479.116
C 151.212 476.967 153.654 475.261 155.744 473.514
C 159.257 470.577 162.742 467.61 166.171 464.574
C 176.777 455.184 187.224 444.913 198.804 436.76
C 199.159 439.403 198.817 442.327 198.843 445.003
C 198.886 449.604 199.104 454.269 198.781 458.859
C 196.364 462.116 192.323 464.85 189.301 467.557
C 185.006 471.404 180.817 475.379 176.554 479.264
C 173.44 482.103 170.049 484.612 167.066 487.597
C 166.652 488.762 166.923 490.274 166.91 491.509
C 166.88 494.425 166.492 497.63 166.935 500.512
C 166.614 501.028 163.365 500.591 162.704 500.552
C 158.371 500.296 154.041 500.582 149.709 500.621
C 148.988 498.981 149.43 495.721 149.424 493.914
C 149.41 489.142 149.278 484.346 149.421 479.576 Z"
opacity="1" fill="rgb(19,121,103)" fill-rule="evenodd" />
<path d="
M 149.417 529.108
C 149.534 528.489 149.5 528.853 149.435 528.011
C 151.297 527.501 153.572 527.808 155.502 527.801
C 159.142 527.787 163.358 527.299 166.933 527.998
C 166.785 535.077 167.405 542.234 167.103 549.289
C 169.803 549.197 172.662 549.282 175.362 549.464
C 175.12 550.213 173.909 550.777 173.292 551.211
C 172.169 552.003 171.208 553.126 170.184 554.045
C 165.385 558.355 160.562 562.634 155.749 566.926
C 154.393 568.135 152.999 569.307 151.613 570.482
C 151.069 570.944 150.292 571.806 149.575 571.764
C 148.797 565.125 149.332 558.182 149.303 551.499
C 149.271 544.125 148.694 536.448 149.417 529.108 Z"
opacity="1" fill="rgb(50,162,105)" fill-rule="evenodd" />
<path d="
M 184.01 490.114
C 184.239 488.51 184.031 486.911 184.12 485.309
C 186.239 482.515 189.339 480.225 191.955 477.911
C 194.224 475.903 196.282 473.554 198.638 471.667
C 198.399 475.191 198.824 478.787 198.727 482.322
C 196.205 486.422 191.136 489.333 187.65 492.561
C 186.913 493.243 184.932 495.881 183.86 495.779
C 183.829 493.889 183.974 492.002 184.01 490.114 Z"
opacity="1" fill="rgb(61,169,112)" fill-rule="evenodd" />
<path d="
M 248.339 435.758
C 258.824 435.18 269.494 435.727 279.999 435.735
C 295.484 435.746 310.999 435.462 326.48 435.757
C 326.478 439.641 326.49 443.593 326.476 447.505
C 326.468 449.499 326.148 452.233 326.737 454.139
C 315.52 453.579 304.23 453.873 292.997 453.883
C 284.45 453.89 275.734 453.422 267.222 454.27
C 268.065 467.967 266.387 481.831 267.421 495.528
C 284.69 495.111 301.996 496.007 319.273 495.558
C 319.115 499.618 319.126 503.7 319.156 507.763
C 319.169 509.67 318.894 511.874 319.2 513.742
C 315.338 514.007 311.373 513.622 307.503 513.609
C 299.002 513.582 290.502 513.589 282.002 513.604
C 278.835 513.609 275.668 513.595 272.502 513.624
C 270.884 513.638 269.003 513.396 267.429 513.768
C 267.47 526.175 267.25 538.593 267.256 551.003
C 267.259 555.17 267.265 559.337 267.272 563.503
C 267.276 565.415 267.598 567.587 267.206 569.463
C 261.229 570.1 254.987 569.192 248.96 569.421
C 248.398 568.954 248.484 567.905 248.464 567.175
C 248.408 565.124 248.551 563.052 248.551 560.997
C 248.551 552.83 248.465 544.665 248.441 536.498
C 248.341 502.935 247.933 469.313 248.339 435.758 Z"
opacity="1" fill="rgb(46,163,105)" fill-rule="evenodd" />
<path d="
M 340.435 445.095
C 341 439.969 344.714 435.079 349.96 434.034
C 357.083 432.616 366.113 438.217 365.033 446.355
C 364.417 450.991 362.275 455.247 357.626 457.046
C 349.57 460.165 339.425 454.242 340.435 445.095 Z"
opacity="1" fill="rgb(55,166,102)" fill-rule="evenodd" />
<path d="
M 343.421 472.355
C 345.121 471.656 347.402 471.94 349.213 471.92
C 353.261 471.875 357.389 471.774 361.428 472.01
C 361.848 475.368 361.438 478.902 361.439 482.292
C 361.442 488.864 361.585 495.427 361.594 502
C 361.627 524.426 361.087 546.903 361.347 569.313
C 357.065 569.317 352.78 569.244 348.496 569.232
C 347.155 569.228 344.439 569.735 343.317 569.077
C 343.376 548.053 343.338 527.024 343.328 505.999
C 343.322 494.801 343.013 483.546 343.421 472.355 Z"
opacity="1" fill="rgb(55,163,101)" fill-rule="evenodd" />
<path d="
M 379.822 471.915
C 385.268 471.914 390.734 471.851 396.179 471.713
C 395.548 463.166 396.481 454.416 396.128 445.835
C 396.56 444.909 399.759 445.397 400.745 445.397
C 405.409 445.398 410.394 444.858 415.015 445.483
C 415.096 451.978 415.034 458.494 415.099 465.001
C 415.116 466.668 415.072 468.339 415.119 470.005
C 415.136 470.636 414.987 471.453 415.444 471.903
C 421.645 471.837 428.333 471.279 434.475 472.143
C 434.316 476.384 434.57 480.738 434.586 484.999
C 434.59 486.055 435.108 488.962 434.504 489.823
C 427.976 490.009 421.294 489.186 414.791 489.864
C 415.009 493.711 414.735 497.676 414.741 501.538
C 414.756 510.526 414.736 519.514 414.758 528.501
C 414.775 535.816 414.911 543.33 421.235 548.192
C 426.241 552.042 431.734 551.563 437.622 552.149
C 438.364 552.929 437.915 555.411 437.928 556.505
C 437.981 560.915 438.227 565.387 438.066 569.79
C 433.793 570.368 428.718 569.839 424.452 569.315
C 411.069 567.672 400.456 557.169 397.231 544.354
C 395.658 538.107 396.171 531.389 396.146 525.005
C 396.101 513.345 396.367 501.647 395.867 490.003
C 395.194 489.36 392.959 489.782 392 489.776
C 388.009 489.747 383.999 489.635 380.011 489.82
C 379.398 489.249 379.807 486.37 379.799 485.496
C 379.757 481.045 379.333 476.34 379.822 471.915 Z"
opacity="1" fill="rgb(50,164,103)" fill-rule="evenodd" />
<path d="
M 453.438 498.106
C 455.046 487.374 457.148 477.491 462.483 467.883
C 475.634 444.195 501.397 431.345 528.184 433.791
C 545.398 435.363 561.928 444.491 572.162 458.441
C 574.536 461.677 576.459 465.274 578.227 468.867
C 578.569 469.561 580.048 471.996 579.81 472.667
C 573.97 473.782 568.868 478.377 563.016 479.463
C 555.939 459.269 533.038 449.457 512.828 452.686
C 506.235 453.74 499.971 456.463 494.406 460.091
C 475.231 472.591 467.658 497.681 474.505 519.132
C 476.979 526.882 481.38 534.151 487.463 539.583
C 493.802 545.242 501.001 549.86 509.512 551.465
C 517.69 553.008 526.161 552.858 534.294 551.016
C 538.34 550.1 542.217 548.211 546.26 547.491
C 546.203 553.802 546.464 560.153 546.313 566.478
C 545.913 566.892 544.867 567.023 544.326 567.211
C 542.575 567.82 540.721 568.237 538.922 568.679
C 531.067 570.611 523.066 571.04 515.008 570.479
C 508.936 570.057 502.838 568.848 497.107 566.787
C 468.888 556.636 451.352 527.653 453.438 498.106 Z"
opacity="1" fill="rgb(28,65,71)" fill-rule="evenodd" />
<path d="
M 525.176 495.705
C 531.687 495.045 538.464 495.513 545.008 495.51
C 557.477 495.504 569.961 495.528 582.418 495.463
C 582.067 501.09 582.401 506.864 582.391 512.509
C 582.369 524.343 582.406 536.177 582.409 548.011
C 582.41 553.01 582.421 558.009 582.397 563.009
C 582.39 564.695 582.964 567.699 582.363 569.235
C 578.245 569.334 574.118 569.285 569.999 569.327
C 568.554 569.342 565.921 569.881 564.672 569.22
C 564.371 558.835 564.623 548.396 564.625 538.005
C 564.627 529.93 564.307 521.771 564.631 513.707
C 560.575 513.077 556.105 513.549 552.001 513.556
C 543.096 513.571 534.164 513.78 525.264 513.676
C 525.203 507.691 525.376 501.689 525.176 495.705 Z"
opacity="1" fill="rgb(29,64,70)" fill-rule="evenodd" />
<path d="
M 600.841 424.912
C 601.728 424.005 604.022 424.407 605.257 424.383
C 609.592 424.3 613.992 424.204 618.319 424.472
C 619.016 427.181 618.448 430.69 618.465 433.492
C 618.504 439.658 618.551 445.824 618.558 451.992
C 618.579 472.002 618.487 492.011 618.459 512.021
C 618.452 517.104 618.463 522.186 618.447 527.268
C 618.435 531.074 618.086 535.289 618.934 539.024
C 620.106 544.185 624.392 548.29 629.213 550.152
C 633.18 551.685 637.195 551.182 641.319 551.569
C 641.764 553.365 641.415 555.646 641.403 557.508
C 641.38 561.299 641.48 565.108 641.283 568.894
C 640.72 569.409 639.138 569.158 638.412 569.149
C 635.883 569.115 633.315 569.056 630.796 568.838
C 616.971 567.64 606.385 558.392 602.185 545.37
C 600.439 539.955 600.779 534.116 600.796 528.503
C 600.819 520.502 600.847 512.5 600.843 504.499
C 600.835 487.499 600.934 470.499 600.882 453.499
C 600.853 444.016 600.352 434.377 600.841 424.912 Z"
opacity="1" fill="rgb(29,72,76)" fill-rule="evenodd" />
<path d="
M 632.451 471.618
C 638.897 471.734 645.402 471.219 651.849 471.621
C 653.377 473.961 654.37 476.859 655.533 479.399
C 658.039 484.875 660.458 490.386 662.853 495.912
C 669.693 511.694 676.36 527.537 683.267 543.286
C 683.645 543.258 683.666 542.622 683.766 542.336
C 684.161 541.2 684.717 540.062 685.226 538.968
C 687.225 534.678 689.07 530.285 690.821 525.886
C 696.177 512.427 701.853 499.054 707.496 485.712
C 708.887 482.425 710.3 479.135 711.626 475.82
C 712.084 474.673 712.649 472.268 713.661 471.562
C 719.79 471.289 726.728 470.62 732.773 471.624
C 728.372 481.928 724.426 492.423 720 502.72
C 710.053 525.856 700.029 548.963 689.912 572.026
C 683.388 586.9 677.421 602.001 670.694 616.786
C 669.102 617.361 666.458 616.858 664.758 616.85
C 660.308 616.829 655.848 616.725 651.4 616.879
C 650.887 616.158 652.236 614.218 652.599 613.444
C 654.046 610.35 655.327 607.177 656.647 604.028
C 660.357 595.181 664.164 586.362 667.959 577.551
C 669.235 574.588 670.507 571.626 671.759 568.654
C 672.34 567.275 673.279 565.532 673.261 564.003
C 673.234 561.585 671.082 558.402 670.094 556.226
C 667.496 550.504 664.855 544.783 662.46 538.971
C 656.409 524.288 649.597 509.877 643.117 495.379
C 639.58 487.466 636.379 479.347 632.451 471.618 Z"
opacity="1" fill="rgb(29,73,78)" fill-rule="evenodd" />
<path d="
M 741.967 613.119
C 742.474 608.167 742.057 602.969 742.057 597.991
C 742.057 588.325 742.076 578.659 742.064 568.993
C 742.031 542.039 742.291 515.077 742.068 488.125
C 746.709 487.888 751.455 487.646 756.09 488.027
C 758.398 486.344 759.858 483.393 761.981 481.473
C 767.464 476.514 774.268 473.017 781.514 471.543
C 788.506 470.121 795.802 470.08 802.798 471.529
C 833.789 477.946 849.201 514.948 835.986 542.69
C 830.301 554.625 820.364 563.072 808.14 567.778
C 801.54 570.318 794.212 570.812 787.216 570.224
C 780.653 569.672 773.848 567.713 768.238 564.189
C 765.246 562.309 762.769 559.722 759.796 557.827
C 760.315 561.49 759.899 565.312 759.972 569
C 760.194 580.157 760.113 591.338 760.148 602.502
C 760.159 605.908 760.111 609.313 760.155 612.718
C 760.172 614.053 759.893 615.812 760.17 617.091
C 756.379 617.202 752.568 617.009 748.774 617.018
C 746.591 617.023 744.114 617.344 741.966 616.982
C 741.946 615.691 741.908 614.415 741.967 613.119 Z
M 759.918 516.603
C 759.371 521.207 759.801 526.031 761.142 530.475
C 762.246 534.133 764.166 537.368 766.489 540.374
C 780.445 558.437 809.781 555.355 819.688 534.795
C 821.23 531.594 822.316 528.305 822.724 524.762
C 823.327 519.522 822.826 514.32 821.181 509.315
C 820.043 505.851 818.144 502.632 815.901 499.774
C 813.809 497.11 811.353 495.118 808.565 493.22
C 796.447 484.971 778.889 486.897 768.79 497.601
C 763.992 502.688 760.743 509.66 759.918 516.603 Z"
opacity="1" fill="rgb(29,71,76)" fill-rule="evenodd" />
<path d="
M 857.985 425.612
C 857.982 425.442 857.978 425.272 857.974 425.101
C 859.121 424.08 861.497 424.575 863.005 424.567
C 867.27 424.544 871.538 424.506 875.799 424.712
C 876.508 430.849 875.96 437.331 875.976 443.506
C 876.006 455.34 876.062 467.201 875.889 479.026
C 877.418 478.249 878.712 476.944 880.218 476.084
C 884.782 473.48 889.684 471.525 894.926 470.857
C 900.147 470.191 905.649 470.15 910.823 471.221
C 914.979 472.081 919.014 473.348 922.692 475.505
C 925.663 477.247 928.499 479.254 930.919 481.718
C 941.175 492.158 942.051 505.811 942.097 519.599
C 942.119 526.231 942.106 532.864 942.103 539.496
C 942.1 545.996 942.108 552.496 942.106 558.996
C 942.105 562.166 942.476 565.572 941.984 568.705
C 940.892 569.336 938.271 568.855 937.001 568.859
C 932.834 568.87 928.667 568.875 924.503 568.807
C 923.8 568.119 924.221 565.211 924.208 564.219
C 924.15 559.65 924.185 555.077 924.181 550.507
C 924.174 540.089 924.245 529.67 924.19 519.253
C 924.154 512.355 924.393 505.067 920.85 498.876
C 911.027 481.712 879.587 485.419 876.347 505.978
C 875.503 511.337 876.089 517.086 876.089 522.497
C 876.089 532.829 876.095 543.162 876.075 553.495
C 876.067 557.329 876.058 561.165 876.099 564.998
C 876.105 565.586 876.479 568.535 875.974 568.828
C 870.15 568.749 864.307 568.903 858.481 568.88
C 857.949 568.383 858.199 567.222 858.21 566.508
C 858.244 564.339 858.223 562.17 858.226 560.001
C 858.237 551.001 858.253 542.001 858.25 533.002
C 858.245 510.503 858.145 488.004 858.162 465.506
C 858.171 452.26 858.789 438.835 857.985 425.612 Z"
opacity="1" fill="rgb(29,71,76)" fill-rule="evenodd" />

</svg>