<svg xmlns="http://www.w3.org/2000/svg"
shape-rendering="geometricPrecision"
width="4000" height="4000" viewBox="0 0 1024 1024">
  <metadata>null</metadata>

<path d="
M 169.808 565.983
C 172.681 562.114 180.214 563.677 184.499 563.662
C 198.073 563.612 211.662 563.547 225.234 563.762
C 225.599 564.322 225.432 565.441 225.423 566.092
C 225.394 568.072 225.912 570.215 225.372 572.15
C 211.769 572.548 198.113 572.227 184.505 572.243
C 180.334 572.248 172.718 573.785 169.772 570.062
C 169.574 568.716 169.466 567.311 169.808 565.983 Z"
opacity="1" fill="rgb(187,223,236)" fill-rule="evenodd" />
<path d="
M 196.763 544.972
C 198.635 541.702 201.428 542.094 204.785 542.04
C 211.582 541.933 218.401 541.832 225.196 542.123
C 225.652 542.916 225.554 543.978 225.552 544.88
C 225.548 546.653 226.031 549.005 225.306 550.672
C 220.203 551.464 214.654 550.846 209.502 550.821
C 206.388 550.806 202.679 551.297 199.639 550.538
C 197.338 549.963 196.192 547.071 196.763 544.972 Z"
opacity="1" fill="rgb(187,223,235)" fill-rule="evenodd" />
<path d="
M 225.979 499.127
C 226.415 496.341 226.112 493.313 226.105 490.498
C 226.092 485.165 226.091 479.831 226.068 474.498
C 226.056 471.758 225.453 468.014 226.219 465.406
C 229.098 462.331 232.345 459.642 235.432 456.785
C 241.638 451.042 247.791 445.241 253.979 439.477
C 256.94 436.719 260.343 434.176 263.081 431.212
C 264.527 431.596 266.171 433.84 267.298 434.874
C 270.941 438.215 274.6 441.566 278.156 444.998
C 282.964 449.639 287.915 454.123 292.815 458.669
C 294.955 460.654 298.352 462.856 299.856 465.362
C 300.398 466.266 300.129 467.736 300.115 468.741
C 300.072 471.66 299.999 474.574 299.942 477.496
C 299.749 487.23 299.478 497.242 300.032 506.934
C 299.027 506.298 298.122 505.035 297.239 504.208
C 294.972 502.083 292.747 499.916 290.502 497.768
C 284.391 491.92 278.172 486.161 271.993 480.385
C 270.111 478.626 268.214 476.892 266.357 475.106
C 265.354 474.14 264.297 472.765 263.05 472.15
C 259.492 474.908 256.351 478.419 253.072 481.507
C 247.459 486.793 241.721 491.946 236.137 497.263
C 233.753 499.534 231.388 501.825 229.004 504.096
C 228.011 505.041 227.094 506.258 225.933 506.978
C 225.904 504.367 225.816 501.736 225.979 499.127 Z"
opacity="1" fill="rgb(189,226,238)" fill-rule="evenodd" />
<path d="
M 262.988 502.117
C 263.12 501.595 263.173 501.262 263.468 500.793
C 265.109 500.986 266.134 502.329 267.246 503.43
C 269.171 505.337 271.176 507.16 273.147 509.019
C 278.731 514.286 284.314 519.644 290.137 524.646
C 293.113 527.202 297.342 530.012 299.575 533.226
C 299.977 536.401 299.691 539.807 299.688 543.01
C 299.684 549.177 299.666 555.344 299.658 561.511
C 299.654 565.31 299.655 569.109 299.64 572.908
C 299.631 575.106 299.844 577.631 299.364 579.783
C 293.973 580.181 288.413 579.801 283.002 579.834
C 276.447 579.874 269.751 580.268 263.213 579.828
C 262.391 577.478 262.905 574.473 262.914 572.008
C 262.933 566.508 262.929 561.008 262.934 555.508
C 262.946 541.505 262.861 527.492 263.047 513.498
C 263.097 509.739 262.507 505.855 262.988 502.117 Z"
opacity="1" fill="rgb(189,226,237)" fill-rule="evenodd" />
<path d="
M 397.162 476.621
C 399.34 476.536 401.493 476.645 403.671 476.657
C 403.779 483.251 403.888 489.87 403.969 496.465
C 404.968 496.186 405.683 493.964 406.204 493.118
C 407.875 490.406 410.087 488.053 412.376 485.854
C 418.685 479.792 426.476 476.344 435.062 474.968
C 440.061 474.167 445.836 474.266 450.79 475.277
C 455.307 476.199 459.732 477.473 463.804 479.696
C 466.516 481.177 468.947 482.995 471.211 485.1
C 483.593 496.615 482.539 515.59 482.637 531.007
C 482.668 536.005 482.698 541.003 482.708 546.002
C 482.727 554.539 483.482 563.511 482.556 571.997
C 480.712 572.636 478.183 571.938 476.245 572.035
C 475.638 570.452 476.059 567.983 476.072 566.285
C 476.104 562.191 476.08 558.096 476.081 554.002
C 476.083 544.539 476.092 535.075 476.089 525.612
C 476.086 515.137 475.889 504.33 470.241 495.098
C 460.313 478.872 436.897 476.823 421.404 485.707
C 415.604 489.033 411.051 494.298 407.97 500.167
C 403.232 509.19 403.67 519.126 403.646 529.006
C 403.611 543.316 404.009 557.674 403.53 571.97
C 401.515 572.388 399.333 571.842 397.299 572.044
C 396.375 569.986 397.107 566.277 397.111 564
C 397.12 557.667 397.145 551.334 397.141 545
C 397.124 522.223 397.666 499.39 397.162 476.621 Z"
opacity="1" fill="rgb(219,239,245)" fill-rule="evenodd" />
<path d="
M 515.01 442.632
C 515.05 439.647 516.722 436.787 519.491 435.534
C 522.875 434.003 527.279 435.892 528.628 439.276
C 529.069 440.383 529.248 441.595 529.212 442.783
C 528.957 451.355 514.893 451.231 515.01 442.632 Z"
opacity="1" fill="rgb(224,244,248)" fill-rule="evenodd" />
<path d="
M 518.806 476.806
C 520.914 476.732 523.01 476.691 525.117 476.843
C 525.967 478.083 525.289 481.474 525.29 483.005
C 525.295 488.338 525.285 493.672 525.29 499.005
C 525.304 516.337 525.3 533.669 525.326 551.001
C 525.333 556.001 525.316 561 525.33 566
C 525.335 567.66 525.932 570.492 525.223 572.011
C 523.062 572.096 520.915 572.001 518.761 571.981
C 519.002 552.835 518.755 533.654 518.753 514.503
C 518.751 501.962 519.158 489.334 518.806 476.806 Z"
opacity="1" fill="rgb(216,237,243)" fill-rule="evenodd" />
<path d="
M 552.81 476.866
C 559.765 476.359 566.79 477.064 573.75 476.695
C 573.374 473.891 573.709 470.833 573.702 468.002
C 573.685 461.091 573.924 454.135 573.707 447.232
C 575.848 446.912 578.032 447.154 580.188 447.159
C 580.658 449.445 580.282 452.167 580.281 454.504
C 580.278 459.338 580.265 464.171 580.277 469.005
C 580.282 471.106 579.553 475.026 580.472 476.895
C 591.889 476.223 603.706 476.469 615.135 476.855
C 615.848 478.06 615.394 481.047 615.348 482.428
C 611.985 483.119 607.94 482.509 604.506 482.514
C 596.406 482.526 588.267 482.332 580.175 482.689
C 580.243 500.626 580.149 518.569 580.124 536.508
C 580.113 544.705 578.813 554.681 584.39 561.506
C 592.111 570.954 606.386 567.349 616.148 564.132
C 616.986 565.059 617.433 568.859 616.879 569.941
C 614.236 571.991 609.367 572.636 606.146 573.118
C 594.582 574.845 580.48 572.333 575.666 560.2
C 572.287 551.683 573.455 541.468 573.446 532.51
C 573.429 515.967 573.462 499.405 573.5 482.874
C 571.991 481.979 569.24 482.531 567.496 482.538
C 562.672 482.558 557.569 483.019 552.774 482.57
C 552.641 480.661 552.43 478.763 552.81 476.866 Z"
opacity="1" fill="rgb(221,239,245)" fill-rule="evenodd" />
<path d="
M 634.954 518.617
C 636.423 511.418 637.693 504.547 641.423 498.05
C 651.351 480.756 671.005 472.216 690.501 475.222
C 710.288 478.272 724.935 493.492 728.273 513.048
C 728.841 516.376 729.003 519.713 729.069 523.085
C 729.095 524.417 729.368 526.387 728.836 527.632
C 708.132 528.519 687.228 527.775 666.504 527.765
C 660.837 527.762 655.171 527.733 649.504 527.75
C 647.245 527.756 643.837 527.166 641.827 528.205
C 642.193 530.445 642.194 532.736 642.644 534.976
C 643.749 540.464 645.994 545.815 649.168 550.429
C 660.347 566.673 682.805 572.368 700.737 564.637
C 708.165 561.433 713.696 556.213 718.969 550.229
C 720.017 549.779 723.147 552.029 723.499 553.113
C 720.727 558.736 715.634 563.161 710.482 566.565
C 693.857 577.549 669.7 576.464 653.734 564.74
C 639.611 554.37 632.858 535.818 634.954 518.617 Z
M 641.968 517.606
C 641.86 518.542 641.156 521.351 641.928 521.963
C 660.452 521.797 678.985 521.995 697.51 521.989
C 705.735 521.986 714.157 522.491 722.36 521.939
C 721.628 512.717 720.299 504.454 714.719 496.748
C 702.311 479.613 676.62 475.493 659.408 487.718
C 649.237 494.941 644.111 505.623 641.968 517.606 Z"
opacity="1" fill="rgb(222,241,247)" fill-rule="evenodd" />
<path d="
M 751.441 519.119
C 751.988 512.627 753.835 506.324 756.806 500.529
C 759.44 495.394 762.862 490.859 767.156 486.995
C 783.193 472.561 808.616 470.339 826.854 482.174
C 835.244 487.618 841.816 495.74 845.509 505.015
C 848.567 512.695 849.468 521.405 848.735 529.605
C 847.515 543.235 840.695 556.349 829.597 564.499
C 810.47 578.545 781.357 577.221 764.883 559.501
C 761.057 555.386 757.643 550.66 755.454 545.458
C 751.96 537.153 750.686 528.084 751.441 519.119 Z
M 757.995 523.615
C 757.432 543.148 770.622 561.798 789.678 566.767
C 796.374 568.513 804.091 568.409 810.784 566.702
C 817.135 565.081 822.734 561.623 827.71 557.464
C 832.145 553.757 835.526 548.719 837.986 543.541
C 840.668 537.897 842.037 531.358 842.113 525.112
C 842.283 511.302 836.829 498.394 825.994 489.669
C 805.651 473.288 774.03 480.64 762.599 503.902
C 759.608 509.99 758.19 516.854 757.995 523.615 Z"
opacity="1" fill="rgb(225,242,247)" fill-rule="evenodd" />

</svg>