<?xml version="1.0" encoding="UTF-8"?>
<svg version="1.1" xmlns="http://www.w3.org/2000/svg" width="1736" height="414">
<path d="M0 0 C0.64759277 0.20898926 1.29518555 0.41797852 1.96240234 0.63330078 C26.74520276 8.89423425 44.52555201 28.11824051 56.05419922 50.99462891 C58.63871265 56.47454459 60.42103848 62.15474637 62 68 C62.31839844 69.155 62.63679688 70.31 62.96484375 71.5 C69.03123684 96.99562441 64.44060063 125.29010595 50.73754883 147.60205078 C36.95218917 168.78630024 14.62250463 183.91439543 -9.8125 189.8125 C-16.62765215 191.06064441 -23.32882982 191.28005618 -30.25 191.3125 C-31.24362549 191.31805908 -32.23725098 191.32361816 -33.26098633 191.3293457 C-56.52065887 191.10352364 -73.7368069 182.04861008 -92 168 C-92 205.62 -92 243.24 -92 282 C-103.88 282 -115.76 282 -128 282 C-128 198.84 -128 115.68 -128 30 C-113.15 29.505 -113.15 29.505 -98 29 C-97.34 27.68 -96.68 26.36 -96 25 C-83.98283468 8.50399616 -64.29099086 -0.05229357 -44.76171875 -3.5859375 C-29.61526877 -5.25314799 -14.51444649 -4.77954899 0 0 Z M-74.8125 47.375 C-83.34654739 56.52007704 -88.99739259 67.92870671 -92 80 C-92.2784375 81.11761719 -92.2784375 81.11761719 -92.5625 82.2578125 C-95.23441289 99.00498079 -91.73979677 114.58018057 -83 129 C-80.24725966 132.62254698 -77.26241821 135.83420394 -74 139 C-73.36320312 139.64582031 -72.72640625 140.29164063 -72.0703125 140.95703125 C-59.99262577 152.45839683 -44.81987415 155.50809367 -28.71459961 155.34716797 C-11.97951823 154.89393556 2.46705121 148.66682938 14.05883789 136.5625 C27.11298342 122.21125753 30.86073561 105.40296285 30.17480469 86.58740234 C28.99433318 69.11444563 20.20590906 54.96058776 7.21484375 43.5546875 C-16.95230186 24.25917994 -52.28095109 26.07603035 -74.8125 47.375 Z " fill="#1F494E" transform="translate(1428,105)"/>
<path d="M0 0 C15.18205287 12.0023797 26.0925933 26.29559957 35.25 43.25 C35.82105469 44.29542969 36.39210938 45.34085937 36.98046875 46.41796875 C38.25 49.25 38.25 49.25 38.25 53.25 C37.31994141 53.56130859 37.31994141 53.56130859 36.37109375 53.87890625 C29.895842 56.13157753 23.75607645 58.78904558 17.64233398 61.87524414 C13.41375706 63.94144826 9.87142376 64.80563233 5.25 65.25 C4.86070312 64.39019531 4.47140625 63.53039062 4.0703125 62.64453125 C-6.11196695 41.13036015 -21.5916194 27.03113967 -43.99609375 18.5703125 C-67.17239682 10.41881361 -92.33996908 11.00066571 -114.75 21.25 C-122.78651122 25.13353953 -129.95048405 29.47420299 -136.75 35.25 C-137.46414063 35.80816406 -138.17828125 36.36632812 -138.9140625 36.94140625 C-157.73124964 52.33426428 -168.29700003 77.46908848 -170.75 101.25 C-172.62185528 127.70555462 -166.44564457 154.65061117 -148.80615234 175.05249023 C-132.53676849 193.00221181 -112.25349852 205.3793028 -87.75 207.25 C-67.23801976 208.20497526 -49.36608696 204.96654693 -29.81274414 198.86083984 C-27.75 198.25 -27.75 198.25 -26.75 198.25 C-26.75 210.79 -26.75 223.33 -26.75 236.25 C-41.85912833 240.89896256 -41.85912833 240.89896256 -48.3125 241.9375 C-49.39217041 242.11792847 -49.39217041 242.11792847 -50.49365234 242.30200195 C-85.56476329 247.97515491 -121.93614388 242.18534159 -151.75 222.25 C-156.33048593 218.86038659 -160.57038181 215.11683104 -164.75 211.25 C-165.51159424 210.55414795 -165.51159424 210.55414795 -166.28857422 209.84423828 C-191.3953887 186.67305999 -206.18797802 154.27586601 -208.75 120.25 C-208.80736328 119.5605127 -208.86472656 118.87102539 -208.92382812 118.16064453 C-211.46541552 83.1494739 -197.33204308 48.08813003 -175.75 21.25 C-175.03714844 20.36183594 -174.32429687 19.47367188 -173.58984375 18.55859375 C-161.36344396 4.12290611 -144.76825229 -5.95534665 -127.75 -13.75 C-126.75097656 -14.22308594 -125.75195312 -14.69617187 -124.72265625 -15.18359375 C-84.86572216 -32.35684992 -34.52905441 -26.21572329 0 0 Z " fill="#1E4248" transform="translate(944.75,52.75)"/>
<path d="M0 0 C11.22 0 22.44 0 34 0 C34.33 34.65 34.66 69.3 35 105 C39.29 102.36 43.58 99.72 48 97 C68.18464718 88.15720219 93.01698899 86.28701974 114 94 C132.69863628 101.41226856 146.83194472 113.91845481 155.5 132.2578125 C161.39831332 146.25519171 163.33039912 162.16346625 163.22705078 177.21606445 C163.22734283 178.35913055 163.22763489 179.50219666 163.22793579 180.67990112 C163.22655737 184.40777539 163.21106696 188.13544248 163.1953125 191.86328125 C163.19157707 194.46786897 163.18873261 197.0724581 163.18673706 199.67704773 C163.18055946 205.80007039 163.16419991 211.9230203 163.14403808 218.04601115 C163.12156214 225.0256133 163.11065646 232.0052192 163.10064721 238.98484862 C163.07982966 253.32327768 163.0432009 267.66162132 163 282 C151.45 282 139.9 282 128 282 C127.98018066 278.65020996 127.96036133 275.30041992 127.93994141 271.84912109 C127.87282464 260.74110145 127.7951889 249.63317289 127.71247292 238.52525902 C127.66255006 231.79518229 127.6161066 225.06511652 127.578125 218.33496094 C127.54106147 211.83151181 127.49464598 205.32818865 127.44193649 198.82484818 C127.42350393 196.35237478 127.4083556 193.8798745 127.39665604 191.40736008 C127.88163842 161.57984316 127.88163842 161.57984316 113.71484375 136.296875 C105.8470398 129.64037324 96.24565994 125.84210904 86 125 C85.20464844 124.93039063 84.40929688 124.86078125 83.58984375 124.7890625 C69.82234573 124.20702193 57.40856264 128.73630317 46.6875 137.1875 C39.64090763 143.72766376 35.46832106 153.0639759 34.82316399 162.61901283 C34.76187996 165.67604829 34.7639967 168.72686655 34.78881836 171.78442383 C34.79078972 173.51996017 34.79078972 173.51996017 34.7928009 175.29055786 C34.79926645 179.09613374 34.81968285 182.9015055 34.83984375 186.70703125 C34.84611679 189.35642373 34.8515023 192.00580207 34.85560608 194.65519714 C34.86695199 200.90585434 34.88765759 207.15643873 34.91250378 213.40705556 C34.95959733 225.27708026 34.99227853 237.14712693 35.0170002 249.01721764 C35.02724339 252.91880388 35.04428772 256.82031945 35.06199646 260.72187805 C35.06882167 263.102101 35.07543046 265.48232458 35.08178711 267.86254883 C35.08852448 268.95193253 35.09526184 270.04131622 35.10220337 271.16371155 C35.10371902 272.15755859 35.10523468 273.15140564 35.10679626 274.17536926 C35.11031569 275.03976026 35.11383512 275.90415125 35.1174612 276.79473591 C35 279 35 279 34 282 C22.45 282 10.9 282 -1 282 C-1.02258421 246.21928366 -1.04049762 210.43856938 -1.05106533 174.65784738 C-1.05231611 170.43815801 -1.05361042 166.21846865 -1.05493164 161.9987793 C-1.05519395 161.15867886 -1.05545626 160.31857842 -1.05572652 159.45302039 C-1.06008346 145.83195574 -1.06797114 132.2108953 -1.0771528 118.58983315 C-1.08648867 104.62400533 -1.09205547 90.65817971 -1.09408849 76.6923489 C-1.09546386 68.06759329 -1.09981519 59.44284954 -1.10791647 50.81809758 C-1.11318311 44.91199374 -1.11480448 39.00589607 -1.11350138 33.09979004 C-1.11285787 29.68708396 -1.11387695 26.27439868 -1.11920547 22.86169624 C-1.12413512 19.17048091 -1.12300099 15.47931757 -1.12025452 11.7881012 C-1.12316736 10.69765757 -1.1260802 9.60721394 -1.12908131 8.48372656 C-1.12709026 7.50290136 -1.12509921 6.52207615 -1.12304783 5.51152897 C-1.12342755 4.65829739 -1.12380727 3.8050658 -1.1241985 2.92597872 C-1 1 -1 1 0 0 Z " fill="#1E484D" transform="translate(1528,11)"/>
<path d="M0 0 C50.49 0 100.98 0 153 0 C153 11.88 153 23.76 153 36 C114.72 36 76.44 36 37 36 C37 62.73 37 89.46 37 117 C70.33 117 103.66 117 138 117 C138 128.55 138 140.1 138 152 C104.67 152 71.34 152 37 152 C37 187.97 37 223.94 37 261 C28.30831962 261.6685908 20.29583921 262.05103588 11.6875 261.5625 C10.64916016 261.51029297 9.61082031 261.45808594 8.54101562 261.40429688 C6.02686552 261.27685148 3.51335989 261.14204687 1 261 C-0.16828614 258.66342773 -0.12430527 257.31191018 -0.12304783 254.70900536 C-0.1260344 253.34973303 -0.1260344 253.34973303 -0.12908131 251.96300066 C-0.12616847 250.96107073 -0.12325563 249.9591408 -0.12025452 248.92684937 C-0.12110894 247.86750045 -0.12196337 246.80815154 -0.12284368 245.71670115 C-0.12449943 242.14363678 -0.11897555 238.57061868 -0.11352539 234.99755859 C-0.11324351 232.44557191 -0.11340126 229.89358515 -0.1139679 227.34159851 C-0.1141961 221.83532491 -0.11134763 216.32906638 -0.10573006 210.82279587 C-0.0976132 202.86159291 -0.09499965 194.90039568 -0.09374207 186.93918903 C-0.09155184 174.02358372 -0.08489254 161.1079847 -0.07543945 148.19238281 C-0.06626458 135.64388052 -0.05919558 123.09537996 -0.05493164 110.546875 C-0.05466364 109.76587771 -0.05439565 108.98488042 -0.05411953 108.18021655 C-0.05204018 102.07257306 -0.05008323 95.96492952 -0.04816496 89.85728598 C-0.03872625 59.90485153 -0.01860913 29.95243286 0 0 Z " fill="#2EA369" transform="translate(336,33)"/>
<path d="M0 0 C0.8556958 -0.00459229 1.7113916 -0.00918457 2.59301758 -0.01391602 C7.05048837 -0.00300261 11.23773938 0.22468267 15.625 1.125 C12.81518046 10.1432811 9.19036266 18.82360439 5.625 27.5625 C5.28842377 28.38944366 4.95184753 29.21638733 4.60507202 30.06838989 C-6.72363678 57.8982429 -18.69738152 85.43800543 -30.69921875 112.98242188 C-37.54678718 128.69911477 -44.37777335 144.42303657 -51.2109375 160.14599609 C-52.53081531 163.18296921 -53.85104033 166.21979057 -55.171875 169.25634766 C-62.50072824 186.10661965 -69.75946383 202.98662176 -77 219.875 C-77.68801193 221.47968643 -77.68801193 221.47968643 -78.3899231 223.11679077 C-84.68796567 237.80647213 -84.68796567 237.80647213 -90.921875 252.5234375 C-91.41478027 253.69422852 -91.90768555 254.86501953 -92.41552734 256.07128906 C-93.25217344 258.06417823 -94.08623864 260.058155 -94.91650391 262.05371094 C-98.1899929 269.86561012 -101.78170594 277.42508415 -105.375 285.125 C-117.915 285.125 -130.455 285.125 -143.375 285.125 C-142.56100516 281.05502578 -141.68535958 278.24477077 -140.0234375 274.53515625 C-139.51280762 273.38418457 -139.00217773 272.23321289 -138.47607422 271.04736328 C-138.19664978 270.42283264 -137.91722534 269.798302 -137.6293335 269.15484619 C-136.06254548 265.64944756 -134.51541037 262.13541003 -132.96875 258.62109375 C-132.62109589 257.8314624 -132.27344177 257.04183105 -131.91525269 256.22827148 C-126.59539864 244.11120788 -121.4328333 231.92610278 -116.25 219.75 C-115.7416864 218.55738556 -115.2333728 217.36477112 -114.70965576 216.13601685 C-113.23999926 212.68759805 -111.77201473 209.23847298 -110.3046875 205.7890625 C-109.86660767 204.76091934 -109.42852783 203.73277618 -108.97717285 202.67347717 C-107.76831808 199.82732632 -106.56982886 196.97706307 -105.375 194.125 C-104.78440796 192.73590927 -104.78440796 192.73590927 -104.18188477 191.3187561 C-103.81490479 190.43658417 -103.4479248 189.55441223 -103.06982422 188.64550781 C-102.58048904 187.48066864 -102.58048904 187.48066864 -102.08126831 186.29229736 C-99.99678191 179.89571717 -102.9046176 174.41921133 -105.71240234 168.77124023 C-106.17855957 167.85673096 -106.6447168 166.94222168 -107.125 166 C-111.5885906 156.95861337 -115.77166615 147.82591751 -119.75 138.5625 C-120.02157928 137.93167511 -120.29315857 137.30085022 -120.57296753 136.65090942 C-122.23912221 132.7804681 -123.89977044 128.90768911 -125.55792236 125.03381348 C-127.92728844 119.49862601 -130.30211905 113.96580748 -132.6875 108.4375 C-132.95193909 107.82445007 -133.21637817 107.21140015 -133.48883057 106.57977295 C-138.21117178 95.6503354 -143.14686738 84.82493491 -148.12734985 74.01116943 C-155.4549773 58.08884609 -162.44567984 42.02552712 -169.40826416 25.94099426 C-173.00638871 17.64350819 -176.68757123 9.3830997 -180.375 1.125 C-175.03658219 0.97658376 -169.69936658 0.8677547 -164.359375 0.79541016 C-162.54340701 0.76525212 -160.72758451 0.72431802 -158.91210938 0.67236328 C-156.30041645 0.59949876 -153.69064942 0.56553633 -151.078125 0.5390625 C-150.26756653 0.50809479 -149.45700806 0.47712708 -148.62188721 0.44522095 C-146.38901625 0.44389034 -144.52375792 0.51548143 -142.375 1.125 C-139.97290039 3.85791016 -139.97290039 3.85791016 -138.375 7.125 C-137.76821411 8.3310791 -137.76821411 8.3310791 -137.14916992 9.56152344 C-136.80474854 10.36106445 -136.46032715 11.16060547 -136.10546875 11.984375 C-135.70038086 12.91531982 -135.29529297 13.84626465 -134.87792969 14.80541992 C-134.44383789 15.81838135 -134.00974609 16.83134277 -133.5625 17.875 C-132.57217778 20.15779649 -131.58126195 22.44033553 -130.58984375 24.72265625 C-130.19921249 25.62501762 -130.19921249 25.62501762 -129.8006897 26.54560852 C-127.93483194 30.85268881 -126.03989526 35.14634157 -124.12890625 39.43359375 C-109.42162662 72.46527312 -95.37863245 105.79007511 -81.375 139.125 C-79.15160882 136.90160882 -78.3885158 135.16279894 -77.15234375 132.28125 C-76.48199097 130.72229004 -76.48199097 130.72229004 -75.7980957 129.13183594 C-75.30784912 127.97458008 -74.81760254 126.81732422 -74.3125 125.625 C-73.92643082 124.71965515 -73.92643082 124.71965515 -73.53256226 123.79602051 C-68.21863237 111.33193788 -63.1632922 98.76429076 -58.10931396 86.19314575 C-52.36078083 71.90223232 -46.42237201 57.70223182 -40.35830688 43.54257202 C-35.4628482 32.1094458 -30.68581795 20.64671591 -26.15258789 9.06420898 C-25.79285889 8.14712158 -25.43312988 7.23003418 -25.0625 6.28515625 C-24.75699219 5.49761963 -24.45148438 4.71008301 -24.13671875 3.89868164 C-23.375 2.125 -23.375 2.125 -22.375 1.125 C-14.99386765 -0.03142499 -7.45380539 0.02246557 0 0 Z " fill="#1F4A4F" transform="translate(1266.375,101.875)"/>
<path d="M0 0 C11.88 0 23.76 0 36 0 C36.89601033 17.36020021 37.12005603 34.62142739 37 52 C38.50626953 51.89171875 38.50626953 51.89171875 40.04296875 51.78125 C51.4507985 50.99324603 62.63373232 50.45673521 74 52 C74.1717305 55.02061675 74.33740922 58.04138753 74.5 61.0625 C74.57154297 62.30483398 74.57154297 62.30483398 74.64453125 63.57226562 C75.05885251 71.41477522 75 79.10716332 75 87 C62.13 87 49.26 87 36 87 C36.09099062 102.7032604 36.09099062 102.7032604 36.20898438 118.40625 C36.26314661 124.81833652 36.3142626 131.23033865 36.34643555 137.64257812 C36.37259753 142.81690441 36.41308982 147.99094453 36.46318626 153.16509247 C36.47976821 155.1312273 36.49133613 157.09741153 36.49761391 159.06360626 C36.327587 180.01065938 36.327587 180.01065938 46 198 C53.45497779 204.11387067 60.24029989 206.24379012 69.6875 207.0625 C71.40005674 207.21656644 73.1123186 207.37395787 74.82421875 207.53515625 C75.57791748 207.600979 76.33161621 207.66680176 77.1081543 207.73461914 C79 208 79 208 81 209 C81 220.22 81 231.44 81 243 C56.62632407 243.35070037 36.821207 240.56071858 18.3515625 223.40625 C1.7226053 206.39057287 -0.44181745 185.54239583 -0.4765625 163.0546875 C-0.4908967 160.95052098 -0.506658 158.84636375 -0.52377319 156.74221802 C-0.56535712 151.24277578 -0.59053748 145.74339123 -0.61126709 140.24383545 C-0.64728721 131.40770065 -0.70803964 122.57170757 -0.76975632 113.73572159 C-0.78883432 110.65404548 -0.80056662 107.57240766 -0.81118774 104.49069214 C-0.82139462 102.61212071 -0.8317521 100.7335501 -0.84228516 98.85498047 C-0.84332748 97.99786972 -0.84436981 97.14075897 -0.84544373 96.25767517 C-0.86862079 92.92272511 -0.93808599 90.18574203 -2 87 C-11.9 87 -21.8 87 -32 87 C-32 75.45 -32 63.9 -32 52 C-21.44 51.67 -10.88 51.34 0 51 C-0.185625 48.89625 -0.37125 46.7925 -0.5625 44.625 C-1.62546783 29.82317292 -0.5217775 14.78369577 0 0 Z " fill="#32A467" transform="translate(625,52)"/>
<path d="M0 0 C1.43352212 0.00015908 2.86704998 0.00585132 4.30053711 0.01586914 C5.43041298 0.01799156 5.43041298 0.01799156 6.58311462 0.02015686 C8.99807646 0.02577163 11.41294687 0.03832656 13.82788086 0.05102539 C15.46134307 0.05603849 17.09480672 0.06060173 18.72827148 0.06469727 C22.74067671 0.07574585 26.75301326 0.09302033 30.76538086 0.11352539 C30.76776921 1.24420409 30.77015757 2.37488279 30.77261829 3.53982449 C30.83142403 31.05717144 30.9073136 58.5744309 31.00109577 86.09168148 C31.0460531 99.39884821 31.08546796 112.70596588 31.11181641 126.01318359 C31.13479691 137.61232163 31.1681957 149.21137498 31.21408242 160.81044585 C31.23801374 166.95152864 31.25674319 173.09252757 31.26299477 179.23365593 C31.26904591 185.01614772 31.28904733 190.79842492 31.31965637 196.58083725 C31.32843602 198.70077969 31.33215933 200.82075018 31.33038902 202.94071007 C31.328732 205.84112685 31.34547246 208.74089278 31.36665344 211.64122009 C31.36180587 212.47490409 31.35695829 213.30858809 31.35196382 214.16753525 C31.45937118 223.11479589 34.01642011 231.04712075 40.22631836 237.67211914 C50.18386197 247.04529987 62.81091954 247.18578231 75.76538086 248.11352539 C75.79003276 252.93733341 75.80821779 257.76110506 75.8203125 262.58496094 C75.8253526 264.22722004 75.83218464 265.86947462 75.84082031 267.51171875 C75.85290011 269.86728018 75.85861225 272.22278248 75.86303711 274.57836914 C75.86819839 275.31691635 75.87335968 276.05546356 75.87867737 276.81639099 C75.87887336 278.58250627 75.82732805 280.34849685 75.76538086 282.11352539 C74.76538086 283.11352539 74.76538086 283.11352539 72.63916016 283.18286133 C49.82727901 282.49056739 31.51172457 280.06957287 14.76538086 263.11352539 C13.5143457 261.92049805 13.5143457 261.92049805 12.23803711 260.70336914 C-0.73187109 247.11877334 -4.41071585 228.89247312 -4.36160278 210.72387695 C-4.36316277 209.82259473 -4.36472276 208.9213125 -4.36633003 207.9927187 C-4.37029364 204.99651224 -4.36716856 202.00035716 -4.36401367 199.00415039 C-4.36536969 196.84683706 -4.36715076 194.68952396 -4.36932373 192.5322113 C-4.37387194 186.69194849 -4.37211983 180.85170339 -4.36894464 175.01144028 C-4.36641016 168.90069278 -4.36876138 162.78994678 -4.37033081 156.67919922 C-4.37214821 146.42699918 -4.36975628 136.17480636 -4.36499023 125.92260742 C-4.35953683 114.05443179 -4.3613198 102.1862733 -4.36681664 90.31809807 C-4.37134615 80.13199656 -4.37199947 69.94590024 -4.36937797 59.75979805 C-4.36781579 53.67388757 -4.36762005 47.58798517 -4.37091446 41.5020752 C-4.37379121 35.78934482 -4.37182114 30.07663672 -4.3660202 24.36390877 C-4.36469204 22.26154683 -4.36508766 20.15918303 -4.36728287 18.05682182 C-4.36999189 15.20029033 -4.36661645 12.34383148 -4.36160278 9.48730469 C-4.36494887 8.22270605 -4.36494887 8.22270605 -4.36836255 6.93255997 C-4.34507717 0.15249912 -4.34507717 0.15249912 0 0 Z " fill="#1F4A4E" transform="translate(1028.234619140625,10.886474609375)"/>
<path d="M0 0 C0 6.93 0 13.86 0 21 C1.76808517 20.83734146 3.53617035 20.67468292 5.35783386 20.50709534 C13.998806 19.84701454 22.61283994 19.86729552 31.2746582 19.88647461 C33.07950845 19.88675727 34.88435881 19.88659722 36.68920898 19.8860321 C41.54986465 19.88574719 46.41049523 19.89159417 51.27114511 19.89860606 C56.36534765 19.90489082 61.45955089 19.90544743 66.55375671 19.90663147 C76.18293078 19.90972976 85.81209339 19.91792276 95.44126242 19.92798096 C106.41112388 19.93918893 117.3809859 19.94466432 128.35085166 19.94967639 C150.90057432 19.96010673 173.45028603 19.97788019 196 20 C196 13.4 196 6.8 196 0 C206.14264208 -1.12696023 206.14264208 -1.12696023 209.52734375 -1.1328125 C210.62079102 -1.13474609 210.62079102 -1.13474609 211.73632812 -1.13671875 C212.46271484 -1.13285156 213.18910156 -1.12898437 213.9375 -1.125 C214.69095703 -1.12886719 215.44441406 -1.13273438 216.22070312 -1.13671875 C221.74634996 -1.12682502 221.74634996 -1.12682502 224 0 C224.02312589 8.8488239 224.04091634 17.69763747 224.05181217 26.54648495 C224.05704046 30.65494285 224.06413713 34.76338014 224.07543945 38.87182617 C224.08627025 42.83346828 224.09227724 46.79509052 224.09487724 50.75674629 C224.09673114 52.27148311 224.1003511 53.78621879 224.10573006 55.30094719 C224.11294307 57.41541813 224.11399083 59.52980594 224.11352539 61.64428711 C224.115746 62.85007919 224.11796661 64.05587128 224.12025452 65.29820251 C224 68 224 68 223 69 C221.00035018 69.08758003 218.9976389 69.10696576 216.99609375 69.09765625 C215.17368164 69.09282227 215.17368164 69.09282227 213.31445312 69.08789062 C212.03505859 69.07951172 210.75566406 69.07113281 209.4375 69.0625 C208.15423828 69.05798828 206.87097656 69.05347656 205.54882812 69.04882812 C202.3658658 69.03699555 199.18292726 69.01905944 196 69 C195.67 62.4 195.34 55.8 195 49 C130.65 49 66.3 49 0 49 C0 55.27 0 61.54 0 68 C-1 69 -1 69 -3.59204102 69.11352539 C-4.71795654 69.10828857 -5.84387207 69.10305176 -7.00390625 69.09765625 C-8.82631836 69.09282227 -8.82631836 69.09282227 -10.68554688 69.08789062 C-11.96494141 69.07951172 -13.24433594 69.07113281 -14.5625 69.0625 C-15.84576172 69.05798828 -17.12902344 69.05347656 -18.45117188 69.04882812 C-21.63416022 69.03699545 -24.81705762 69.02051068 -28 69 C-28.61013415 51.12599029 -29.1030592 33.26049456 -29.125 15.375 C-29.12749756 14.65200714 -29.12999512 13.92901428 -29.13256836 13.18411255 C-29.13837936 11.15139584 -29.13581782 9.1186603 -29.1328125 7.0859375 C-29.13168457 5.9314209 -29.13055664 4.7769043 -29.12939453 3.58740234 C-29 1 -29 1 -28 0 C-18.48913755 -1.25326152 -9.52163596 -0.87443596 0 0 Z " fill="#31A569" transform="translate(35,152)"/>
<path d="M0 0 C0.88425911 0.00701903 1.76851822 0.01403807 2.67957306 0.0212698 C4.0978603 0.0407195 4.0978603 0.0407195 5.5447998 0.06056213 C7.09254719 0.07524961 7.09254719 0.07524961 8.67156219 0.0902338 C11.98810643 0.12292291 15.30451328 0.1629921 18.62097168 0.2033844 C20.6779328 0.22474765 22.73489904 0.24562396 24.79187012 0.26600647 C32.3912173 0.34470713 39.99046474 0.43281203 47.58972168 0.51979065 C73.08222168 0.79822815 73.08222168 0.79822815 99.08972168 1.08229065 C99.08972168 48.60229065 99.08972168 96.12229065 99.08972168 145.08229065 C87.53972168 145.08229065 75.98972168 145.08229065 64.08972168 145.08229065 C63.25776819 126.65386049 62.92984642 108.29827824 62.95935059 89.85646057 C62.9650951 86.22008249 62.96171711 82.58377754 62.95577812 78.947402 C62.95211931 76.07386753 62.95333434 73.20034969 62.95590591 70.32681465 C62.95686697 68.35260086 62.95391103 66.37838634 62.95077515 64.4041748 C62.97502171 54.8955341 63.52887157 45.61674244 64.08972168 36.08229065 C38.67972168 36.08229065 13.26972168 36.08229065 -12.91027832 36.08229065 C-12.91027832 24.53229065 -12.91027832 12.98229065 -12.91027832 1.08229065 C-3.91027832 -0.04270935 -3.91027832 -0.04270935 0 0 Z " fill="#1F4248" transform="translate(889.9102783203125,148.91770935058594)"/>
<path d="M0 0 C11.22 0 22.44 0 34 0 C34 62.7 34 125.4 34 190 C22.45 190 10.9 190 -1 190 C-1.15398382 169.34417106 -1.30291981 148.688325 -1.4429636 128.03239727 C-1.50816528 118.43848294 -1.57551897 108.8445933 -1.64819336 99.25073242 C-1.71163388 90.87509192 -1.77077755 82.49943316 -1.82505554 74.1237281 C-1.85385713 69.7012733 -1.8846098 65.27885418 -1.92053413 60.85645103 C-2.05110954 44.62375254 -2.14630501 28.40847902 -1.57006836 12.18286133 C-1.53038972 11.0492879 -1.49071108 9.91571447 -1.44983006 8.74779034 C-1.13063994 1.13063994 -1.13063994 1.13063994 0 0 Z " fill="#37A365" transform="translate(523,104)"/>
<path d="M0 0 C4.90833344 3.17021536 9.6141892 6.28671613 13.875 10.3125 C17.28546188 13.46507202 20.75385992 16.4666418 24.375 19.375 C28.92860712 23.05636689 33.23582516 26.92774473 37.51904297 30.91357422 C40.75176204 33.90412641 44.06687666 36.73771685 47.5 39.5 C52.61245985 43.61652611 57.42576554 47.9922884 62.23828125 52.44921875 C66.81170939 56.67333272 71.51670681 60.73432248 76.25 64.77734375 C76.84570801 65.286604 77.44141602 65.79586426 78.05517578 66.32055664 C79.21899676 67.31466023 80.38392984 68.30746428 81.55029297 69.29858398 C82.71347877 70.29106849 83.86060391 71.30258966 84.99365234 72.3293457 C87.027848 74.10397441 87.027848 74.10397441 89.65087891 75.62963867 C93.41412649 78.23216812 96.42360951 80.54707052 97.51373291 85.1862793 C98.25449424 91.63713563 97.90985594 98.0919704 97.625 104.5625 C97.57478214 106.54480965 97.52916478 108.5272415 97.48828125 110.50976562 C97.38716101 115.34533562 97.19165847 120.16381785 97 125 C85.45 125 73.9 125 62 125 C61.6875 113.3125 61.6875 113.3125 61.61206055 109.65356445 C61.57894775 108.691521 61.54583496 107.72947754 61.51171875 106.73828125 C61.48553467 105.75899658 61.45935059 104.77971191 61.43237305 103.77075195 C60.57709585 98.28992704 57.36770686 95.15182041 53.3125 91.625 C52.42175781 90.84382813 51.53101563 90.06265625 50.61328125 89.2578125 C49.75089844 88.51273437 48.88851562 87.76765625 48 87 C46.66620172 85.83386492 45.33282874 84.66724309 44 83.5 C43.35546875 82.93796875 42.7109375 82.3759375 42.046875 81.796875 C35.52425535 76.07091119 29.13421805 70.20179858 22.76074219 64.31103516 C18.19533121 60.12096347 13.48755478 56.10493267 8.71972656 52.1472168 C8.1625293 51.67840088 7.60533203 51.20958496 7.03125 50.7265625 C6.29745117 50.11675537 6.29745117 50.11675537 5.54882812 49.49462891 C5.03771484 49.00140137 4.52660156 48.50817383 4 48 C3.28553711 47.32283936 2.57107422 46.64567871 1.83496094 45.94799805 C-0.81900906 41.68420244 -0.50173087 38.02846167 -0.390625 33.10546875 C-0.38496521 32.15811356 -0.37930542 31.21075836 -0.37347412 30.23469543 C-0.35114084 27.21844265 -0.3009498 24.20339178 -0.25 21.1875 C-0.22993107 19.13868907 -0.21168099 17.08985946 -0.1953125 15.04101562 C-0.15128594 10.02688291 -0.0822791 5.01364501 0 0 Z " fill="#1C4A4E" transform="translate(26,35)"/>
<path d="M0 0 C1.47422181 2.94844362 1.12989872 5.59070331 1.1328125 8.87890625 C1.13376923 9.56500473 1.13472595 10.25110321 1.13571167 10.95799255 C1.13639299 12.41478568 1.13454205 13.87158183 1.13037109 15.32836914 C1.12507926 17.52953174 1.13028768 19.73048488 1.13671875 21.93164062 C1.14066881 25.95628913 1.08681326 29.97623184 1 34 C0.98018066 34.93763184 0.96036133 35.87526367 0.93994141 36.84130859 C0.60693927 42.29322408 -0.88862129 44.84111416 -4.875 48.5 C-5.60831543 49.18690918 -5.60831543 49.18690918 -6.35644531 49.88769531 C-10.56708474 53.77506108 -15.02437069 57.37439196 -19.50390625 60.9453125 C-22.3063807 63.2522007 -24.8184867 65.72722503 -27.33984375 68.33203125 C-29.70558218 70.70890257 -32.23740001 72.87101215 -34.77734375 75.05859375 C-37.32976883 77.28804061 -39.81887514 79.58001382 -42.3125 81.875 C-47.00617798 86.16224218 -51.83038796 90.20662447 -56.78515625 94.1875 C-60.16926085 96.74389653 -60.16926085 96.74389653 -61.31884766 100.61376953 C-61.35026855 101.69255371 -61.38168945 102.77133789 -61.4140625 103.8828125 C-61.44967285 104.93355957 -61.4852832 105.98430664 -61.52197266 107.06689453 C-61.55597168 108.40606934 -61.5899707 109.74524414 -61.625 111.125 C-61.810625 117.498125 -61.810625 117.498125 -62 124 C-73.22 124 -84.44 124 -96 124 C-96.27734827 118.07039672 -96.51530597 112.16362011 -96.65917969 106.23266602 C-96.71916242 104.22147076 -96.80078792 102.21079081 -96.90527344 100.20141602 C-97.79635444 82.61130229 -97.79635444 82.61130229 -93.47314453 77.32128906 C-90.60596454 74.45549673 -87.38055007 72.23141474 -84 70 C-82.11102596 68.47548755 -80.23367242 66.93631289 -78.375 65.375 C-77.47910156 64.653125 -76.58320313 63.93125 -75.66015625 63.1875 C-72.11283877 60.27046947 -68.71948284 57.20082425 -65.32421875 54.109375 C-63.27957665 52.25373343 -61.21215851 50.43243624 -59.125 48.625 C-55.74204921 45.67855899 -52.42763857 42.66078496 -49.125 39.625 C-40.80091491 31.97971414 -32.46061749 24.43905449 -23.65869141 17.34082031 C-21.73033525 15.78201371 -19.808355 14.21552019 -17.88671875 12.6484375 C-16.44535966 11.47390046 -15.00395356 10.29942111 -13.5625 9.125 C-12.87591309 8.56522461 -12.18932617 8.00544922 -11.48193359 7.42871094 C-2.34601738 0 -2.34601738 0 0 0 Z " fill="#147A68" transform="translate(239,36)"/>
<path d="M0 0 C7.20105498 5.8288472 12.09751947 14.15564769 13.44140625 23.375 C14.3234808 33.59838861 12.76127272 41.64429963 6.19140625 49.6875 C-0.15854221 56.40379164 -7.13962576 59.90426137 -16.42578125 60.7109375 C-27.84897006 60.96863518 -35.38794334 59.11011199 -43.83984375 51.14453125 C-50.03064944 44.77081539 -52.37448094 37.04709093 -52.66015625 28.24609375 C-52.0875791 17.57161971 -48.35465796 9.67900493 -40.55859375 2.375 C-28.53662018 -7.53708424 -13.28172767 -8.43541788 0 0 Z " fill="#1E434A" transform="translate(152.55859375,27.625)"/>
<path d="M0 0 C1.88428711 0.07831055 1.88428711 0.07831055 3.80664062 0.15820312 C6.89221701 0.28725765 9.97741805 0.4221967 13.0625 0.5625 C13.21787275 9.24799071 13.36601373 17.93356843 13.5054636 26.61932945 C13.57046383 30.65449045 13.63775564 34.68958343 13.71069336 38.72460938 C14.32804923 73.04893333 14.32804923 73.04893333 13.0625 87.5625 C7.62657505 83.64945675 2.63806123 79.43357892 -2.3046875 74.9140625 C-4.93416032 72.56548292 -7.63061033 70.33771304 -10.375 68.125 C-15.19627291 64.2230376 -19.79370613 60.12711784 -24.3515625 55.921875 C-27.29134557 53.23965601 -30.31318313 50.66952311 -33.37890625 48.1328125 C-34.9375 46.5625 -34.9375 46.5625 -36.9375 42.5625 C-31.9875 42.5625 -27.0375 42.5625 -21.9375 42.5625 C-21.94535522 40.70733765 -21.94535522 40.70733765 -21.95336914 38.81469727 C-21.97141561 34.24325275 -21.98293071 29.67181141 -21.99243164 25.1003418 C-21.99747267 23.11856559 -22.00430538 21.13679311 -22.01293945 19.1550293 C-22.02501515 16.31297891 -22.03073045 13.47097753 -22.03515625 10.62890625 C-22.04031754 9.73724258 -22.04547882 8.84557892 -22.05079651 7.92689514 C-22.05099177 5.80509399 -21.9996003 3.6833922 -21.9375 1.5625 C-17.6169623 -2.7580377 -5.3975515 -0.24624383 0 0 Z " fill="#1F444C" transform="translate(109.9375,212.4375)"/>
<path d="M0 0 C11.22 0 22.44 0 34 0 C34 13.86 34 27.72 34 42 C39.28 42 44.56 42 50 42 C45.95780673 46.04219327 41.86740793 49.98032412 37.6875 53.875 C37.0181543 54.49922852 36.34880859 55.12345703 35.65917969 55.76660156 C31.81188077 59.34430873 27.93486348 62.87319753 23.94921875 66.296875 C21.44423256 68.48560041 19.00884833 70.74598526 16.5625 73 C3.38818807 85 3.38818807 85 0 85 C-0.87633491 70.11827624 -1.15759546 55.28236447 -1.13037109 40.37597656 C-1.12495299 36.84435848 -1.13038445 33.31286455 -1.13671875 29.78125 C-1.13605874 27.49739556 -1.13477918 25.21354119 -1.1328125 22.9296875 C-1.13483673 21.89302948 -1.13686096 20.85637146 -1.13894653 19.78829956 C-1.13579437 18.79581207 -1.13264221 17.80332458 -1.12939453 16.78076172 C-1.12859894 15.92698944 -1.12780334 15.07321716 -1.12698364 14.193573 C-0.93841778 9.45123892 -0.42969003 4.72659032 0 0 Z " fill="#32A269" transform="translate(143,213)"/>
<path d="M0 0 C5.37276068 3.60345501 8.93141409 8.11531888 10.265625 14.51953125 C11.142879 21.97619021 8.51502793 29.94765921 4.015625 35.95703125 C-1.19722138 40.81445629 -5.54993967 42.74865545 -12.734375 42.95703125 C-20.62135871 42.64948849 -26.3756768 40.65866779 -32.19140625 35.2421875 C-36.84180883 30.05021905 -38.38576545 24.8909174 -38.046875 17.96484375 C-37.0704632 10.32442145 -33.60634428 4.51953517 -27.734375 -0.48046875 C-18.31599953 -6.24843359 -9.42629174 -5.14296106 0 0 Z " fill="#38A666" transform="translate(553.734375,33.48046875)"/>
<path d="M0 0 C1.3921875 1.2065625 1.3921875 1.2065625 2.8125 2.4375 C5.91252305 5.10090009 9.07069581 7.68192503 12.25 10.25 C13.17941406 11.03503906 14.10882813 11.82007812 15.06640625 12.62890625 C17.95705984 15.05260882 17.95705984 15.05260882 21.15234375 17.02734375 C25.30397217 19.98210632 28.51652759 22.34739464 29.47265625 27.59326172 C29.94779522 34.08214818 29.60691178 40.53023558 29 47 C23.58736704 42.43318717 18.37534909 37.68907564 13.22583008 32.82910156 C9.98823832 29.78918241 6.70802743 26.96347512 3.1875 24.25 C0.47515478 21.89043315 -0.51509701 20.32694675 -1 16.75 C-1.03820726 15.16712772 -1.03484481 13.58294987 -1 12 C-1.02320312 11.01515625 -1.04640625 10.0303125 -1.0703125 9.015625 C-1.11899062 6.33137431 -1.16271092 3.67994462 -1 1 C-0.67 0.67 -0.34 0.34 0 0 Z " fill="#319870" transform="translate(26,103)"/>
<path d="M0 0 C1.89979171 19.08028566 1.89979171 19.08028566 -2.09765625 24.5625 C-4.91476674 27.35187522 -7.78135111 29.68875782 -11 32 C-12.77412652 33.43343366 -14.54518715 34.87067399 -16.3125 36.3125 C-17.12332031 36.93769531 -17.93414062 37.56289062 -18.76953125 38.20703125 C-20.83446385 39.86693328 -22.66460986 41.59350515 -24.5 43.5 C-25.325 44.325 -26.15 45.15 -27 46 C-27.66 46 -28.32 46 -29 46 C-29.52358434 27.68456891 -29.52358434 27.68456891 -26.2109375 21.84765625 C-23.93177496 19.61940284 -21.62259353 17.80667554 -19 16 C-17.67431218 14.84834069 -16.36116372 13.68204902 -15.0625 12.5 C-14.423125 11.95214844 -13.78375 11.40429688 -13.125 10.83984375 C-9.69163519 7.8672062 -6.35508631 4.78732321 -3.00390625 1.72265625 C-1 0 -1 0 0 0 Z " fill="#3FA971" transform="translate(239,104)"/>
</svg>
