<?xml version="1.0" encoding="UTF-8"?>
<svg version="1.1" xmlns="http://www.w3.org/2000/svg" width="1356" height="295">
<path d="M0 0 C447.48 0 894.96 0 1356 0 C1356 97.35 1356 194.7 1356 295 C908.52 295 461.04 295 0 295 C0 197.65 0 100.3 0 0 Z " fill="#FEFEFE" transform="translate(0,0)"/>
<path d="M0 0 C4.08373897 1.49213539 5.57922547 3.54875451 8.265625 6.87109375 C11.16617393 10.25697074 14.49532516 13.08538455 17.8359375 16.02734375 C19.92563046 17.89724699 21.91335597 19.81054821 23.875 21.8125 C26.1535743 24.13701617 28.50149662 26.31480698 30.96875 28.4375 C35.11845821 32.04623179 39.13053044 35.78362988 43.125 39.5625 C51.14766659 47.11674398 59.25142219 54.54936227 67.65625 61.6796875 C70.39581142 64.27152747 71.22588576 65.84301145 71.49050903 69.62333679 C71.49631009 71.0700942 71.49098361 72.5169211 71.47705078 73.96362305 C71.47734283 74.75410034 71.47763489 75.54457764 71.47793579 76.35900879 C71.47654214 78.97252366 71.46097938 81.58575366 71.4453125 84.19921875 C71.44158249 86.01096948 71.43873546 87.82272224 71.43673706 89.63447571 C71.42909964 94.40371263 71.4094502 99.1728278 71.3873291 103.9420166 C71.36687303 108.80833285 71.35773585 113.67466877 71.34765625 118.54101562 C71.32620442 128.08989725 71.29206714 137.6386885 71.25 147.1875 C63.90838333 140.9800718 63.90838333 140.9800718 60.56640625 137.56640625 C59.95289307 136.94451416 59.33937988 136.32262207 58.70727539 135.68188477 C58.08199951 135.04436279 57.45672363 134.40684082 56.8125 133.75 C52.34218682 129.23153067 47.86318051 124.82627663 43.00390625 120.72265625 C40.28051581 118.33893143 37.78812549 115.7340337 35.25 113.15625 C33.31108998 111.24763545 31.31300449 109.46039448 29.25 107.6875 C25.73858352 104.66987647 22.49692598 101.45390919 19.25 98.15625 C16.69333624 95.63953412 13.99591467 93.32057493 11.26171875 91 C8.36837626 88.39318268 5.78867081 85.50692643 3.20703125 82.59375 C1.32400171 80.91578153 1.32400171 80.91578153 -1.1472168 81.41259766 C-3.98085452 82.25623016 -5.2411767 83.14630146 -7.3515625 85.1796875 C-8.00125 85.79714844 -8.6509375 86.41460937 -9.3203125 87.05078125 C-9.99835938 87.71464844 -10.67640625 88.37851563 -11.375 89.0625 C-12.43460938 90.07763672 -12.43460938 90.07763672 -13.515625 91.11328125 C-18.46337604 95.87211816 -23.33421579 100.70814252 -28.125 105.625 C-30.87933406 108.31375468 -33.74572735 110.8235683 -36.65283203 113.34423828 C-40.07699418 116.35383365 -43.3788219 119.48963361 -46.6875 122.625 C-47.40679687 123.30369141 -48.12609375 123.98238281 -48.8671875 124.68164062 C-52.7829835 128.37687619 -56.69120627 132.08004535 -60.59765625 135.78515625 C-61.76663452 136.89129272 -61.76663452 136.89129272 -62.95922852 138.01977539 C-64.46828777 139.44777679 -65.9753398 140.8779028 -67.48022461 142.31030273 C-68.15706299 142.95040283 -68.83390137 143.59050293 -69.53125 144.25 C-70.4294043 145.10271484 -70.4294043 145.10271484 -71.34570312 145.97265625 C-72.75 147.1875 -72.75 147.1875 -73.75 147.1875 C-74.0290373 136.81708825 -74.24175111 126.44758046 -74.37174606 116.07416821 C-74.43416653 111.2561784 -74.51869613 106.44077099 -74.65527344 101.62426758 C-74.78645279 96.96855478 -74.85756693 92.31531141 -74.88852692 87.65789223 C-74.91056314 85.88866621 -74.95360084 84.1195634 -75.01876068 82.35140038 C-75.53334038 67.79820144 -75.53334038 67.79820144 -71.15205383 62.72129822 C-68.25071271 59.86324441 -65.06246603 57.54723553 -61.75 55.1875 C-60.27252069 53.8518896 -58.81219338 52.49644767 -57.38671875 51.10546875 C-56.73566162 50.4911499 -56.08460449 49.87683105 -55.41381836 49.24389648 C-54.7616333 48.62716064 -54.10944824 48.0104248 -53.4375 47.375 C-47.42833562 41.7060152 -41.40446228 36.05354594 -35.35986328 30.42236328 C-32.07896165 27.36478279 -28.8044771 24.30068508 -25.5390625 21.2265625 C-24.83338135 20.56277588 -24.1277002 19.89898926 -23.40063477 19.21508789 C-22.05888992 17.95240763 -20.71814648 16.68866195 -19.37866211 15.42358398 C-15.50357003 11.77860546 -11.55693896 8.23679689 -7.52709961 4.76342773 C-5.73150979 3.22400414 -5.73150979 3.22400414 -4.18969727 1.49633789 C-2.75 0.1875 -2.75 0.1875 0 0 Z " fill="#BDE2EE" transform="translate(195.75,3.8125)"/>
<path d="M0 0 C4.36707325 1.09176831 5.26314272 1.95549318 8.25 5.125 C11.05601802 8.0317234 13.85895454 10.82104858 16.9375 13.4375 C20.1103592 16.15619248 23.06338382 19.02751675 26 22 C29.4711739 25.50804524 33.00563533 28.83299702 36.7578125 32.03515625 C38.5171299 33.57685774 40.22894088 35.14152354 41.9296875 36.74609375 C48.35556899 42.80083701 54.87344447 48.36850023 62.02734375 53.55078125 C70.32853286 60.39026295 70.32853286 60.39026295 71.54183578 65.10590935 C71.73520342 67.50407236 71.743281 69.83481061 71.68115234 72.23999023 C71.68246658 73.58751625 71.68246658 73.58751625 71.68380737 74.96226501 C71.67964934 77.91194649 71.63308269 80.85931292 71.5859375 83.80859375 C71.574739 85.8612392 71.5662019 87.91390074 71.56021118 89.96656799 C71.53736453 95.35428587 71.47847663 100.74102446 71.4119873 106.12835693 C71.3396496 112.60019444 71.31223897 119.07236044 71.27726746 125.544487 C71.2191954 135.36367123 71.10419369 145.1807092 71 155 C47.57 155 24.14 155 0 155 C0 103.85 0 52.7 0 0 Z " fill="#BDE2ED" transform="translate(195,139)"/>
<path d="M0 0 C13.64063686 11.88722881 24.27521171 27.61045644 28.70703125 45.29296875 C29.00351563 46.45570313 29.3 47.6184375 29.60546875 48.81640625 C32.25603976 60.8047687 31.70703125 70.39728489 31.70703125 83.29296875 C-24.06296875 83.62296875 -79.83296875 83.95296875 -137.29296875 84.29296875 C-137.29296875 104.51255692 -129.292945 121.95523398 -115.796875 136.80859375 C-99.0260406 153.44861041 -79.5795996 160.56488368 -56.16796875 160.79296875 C-46.24667517 160.72834129 -37.51482378 160.20140038 -28.29296875 156.29296875 C-27.34164063 155.91914063 -26.3903125 155.5453125 -25.41015625 155.16015625 C-12.17811468 149.59459002 0.01446789 140.79369835 8.93359375 129.46484375 C10.70703125 127.29296875 10.70703125 127.29296875 13.14453125 126.66796875 C16.73244467 127.54306958 18.31978456 129.56468682 20.70703125 132.29296875 C13.53762111 149.31481982 -4.46304477 160.99532215 -20.8125 168.0078125 C-44.64975274 176.80967126 -73.40528842 176.68204775 -96.75 166.390625 C-119.61384976 155.69850452 -137.16525082 138.54498641 -146.25244141 114.78417969 C-153.43340374 94.43230047 -155.70689352 71.20236349 -149.29296875 50.29296875 C-148.92430744 48.97176452 -148.55720673 47.65012416 -148.19140625 46.328125 C-144.26789991 32.58048236 -138.24252477 21.50432166 -129.29296875 10.29296875 C-128.63683594 9.43316406 -127.98070312 8.57335937 -127.3046875 7.6875 C-114.24691985 -7.85504673 -91.23814683 -18.29633948 -71.39331055 -20.52612305 C-45.2927087 -22.77423951 -20.29078151 -17.03116955 0 0 Z M-83.29296875 -5.70703125 C-84.23527344 -5.42859375 -85.17757812 -5.15015625 -86.1484375 -4.86328125 C-97.70488208 -1.08176483 -106.6376808 5.93308312 -115.29296875 14.29296875 C-116.123125 15.08058594 -116.95328125 15.86820313 -117.80859375 16.6796875 C-131.01369659 30.56996077 -139.29296875 52.34684091 -139.29296875 71.29296875 C-61.08296875 71.78796875 -61.08296875 71.78796875 18.70703125 72.29296875 C16.66917359 50.8954633 14.01289055 35.91897015 1.70703125 19.29296875 C0.89492187 18.15988281 0.89492187 18.15988281 0.06640625 17.00390625 C-10.90163433 3.09997601 -30.2750989 -6.03279127 -47.48046875 -8.45703125 C-49.08245774 -8.57504149 -50.68761267 -8.65111173 -52.29296875 -8.70703125 C-53.24647217 -8.74570313 -53.24647217 -8.74570313 -54.21923828 -8.78515625 C-64.33763658 -9.14920926 -73.52887967 -8.7073871 -83.29296875 -5.70703125 Z " fill="#DEF1F7" transform="translate(1073.29296875,108.70703125)"/>
<path d="M0 0 C3.470997 2.86577099 6.75371718 5.88356849 10 9 C10.7115625 9.66 11.423125 10.32 12.15625 11 C17.23983547 15.84895845 21.2765069 21.04891496 25 27 C25.67289063 28.06734375 26.34578125 29.1346875 27.0390625 30.234375 C39.12565971 50.4954551 42.83026002 79.73228555 37.5 102.6875 C33.70505122 117.4229052 27.46774829 131.08369612 18 143 C17.31421875 143.87914062 16.6284375 144.75828125 15.921875 145.6640625 C5.45089129 158.19046154 -9.36224211 166.77957294 -24.5625 172.25 C-25.24675049 172.4965332 -25.93100098 172.74306641 -26.63598633 172.99707031 C-50.2598996 181.11209076 -77.79118548 178.87575688 -100.19140625 168.03125 C-122.09033691 156.72857611 -138.60644957 137.39150993 -146.33984375 114.03125 C-154.71999376 87.61497103 -154.52153256 60.14205176 -142.125 35.015625 C-130.34747477 12.33535449 -111.55575066 -3.799406 -87.6875 -12.75 C-58.00761733 -21.48576071 -25.31250223 -18.70758083 0 0 Z M-64.76953125 -4.74609375 C-85.93450296 -2.64067772 -105.46277978 8.07971393 -119.57421875 23.8828125 C-136.11097648 44.93980452 -139.72903605 68.89388169 -138 95 C-137.17776233 100.97931236 -135.37048396 106.46840841 -133 112 C-132.70528809 112.69158203 -132.41057617 113.38316406 -132.10693359 114.09570312 C-128.20043331 122.99350409 -123.6130973 130.81131831 -117 138 C-116.26265625 138.82886719 -115.5253125 139.65773437 -114.765625 140.51171875 C-100.89565478 155.31088632 -82.4133294 164.33055106 -62.14453125 165.35546875 C-38.08299917 166.11338488 -17.76914315 159.6823454 0 143 C7.78656421 135.49235749 13.09747043 127.52068968 18 118 C18.42152344 117.22011719 18.84304688 116.44023437 19.27734375 115.63671875 C24.84945115 104.47147713 25.26950313 92.41018736 25.3125 80.1875 C25.31797852 79.04297363 25.32345703 77.89844727 25.32910156 76.71923828 C25.27175868 69.9082875 24.63081994 63.61141182 23 57 C22.75121094 55.92492187 22.50242187 54.84984375 22.24609375 53.7421875 C16.22884181 32.40565162 2.03198581 15.24531501 -17.08203125 4.22265625 C-32.79043817 -3.5426317 -47.47013345 -5.91133816 -64.76953125 -4.74609375 Z " fill="#E1F2F7" transform="translate(1300,105)"/>
<path d="M0 0 C1.6540686 0.00845947 1.6540686 0.00845947 3.34155273 0.01708984 C11.13839447 0.13350362 18.20628278 0.77904631 25.625 3.3125 C26.24632812 3.51117676 26.86765625 3.70985352 27.5078125 3.91455078 C47.47463772 10.34691364 61.02478773 21.70957036 71.16015625 40.09765625 C72.94357571 44.0116675 74.0927954 47.91160118 75.1875 52.0625 C75.39568359 52.79082031 75.60386719 53.51914063 75.81835938 54.26953125 C80.34004441 71.25065561 79.89889652 88.93314363 79.8203125 106.3515625 C79.8165733 108.81448246 79.81373063 111.27740393 79.81173706 113.74032593 C79.80417194 120.16154224 79.78458622 126.58266527 79.7623291 133.00384521 C79.7417156 139.58067565 79.73270248 146.15752144 79.72265625 152.734375 C79.7013323 165.59379055 79.66728445 178.45313746 79.625 191.3125 C75.335 191.3125 71.045 191.3125 66.625 191.3125 C66.61913376 189.96851639 66.61326752 188.62453278 66.60722351 187.23982239 C66.5496628 174.4873526 66.47673148 161.7350479 66.38928509 148.98274708 C66.34482264 142.4288592 66.30551527 135.87503006 66.27856445 129.32104492 C66.25228842 122.97961405 66.21171996 116.6384122 66.16181374 110.29712486 C66.14530756 107.89463875 66.13369336 105.49211317 66.12738609 103.08957863 C66.32949878 75.00848721 66.32949878 75.00848721 58.625 48.3125 C58.20476562 47.40628906 57.78453125 46.50007813 57.3515625 45.56640625 C48.88452137 28.70249284 35.0073867 20.12613775 17.625 14.3125 C1.38800042 11.14579811 -17.12173577 11.57466308 -32.375 18.3125 C-32.98585449 18.580625 -33.59670898 18.84875 -34.22607422 19.125 C-50.95503161 26.82754153 -62.29717434 40.83709225 -69.7421875 57.34375 C-72.1468368 64.01358017 -72.84828693 70.71829115 -73.44677734 77.74243164 C-73.53275366 78.74878442 -73.61872997 79.7551372 -73.70731163 80.79198551 C-74.59913237 92.00197305 -74.72733893 103.19375668 -74.7890625 114.43359375 C-74.80784041 116.64275277 -74.82741831 118.85190512 -74.8477478 121.06105042 C-74.89837725 126.78998826 -74.93836621 132.51894919 -74.97589111 138.24798584 C-75.0163727 144.12826924 -75.06726001 150.00846244 -75.1171875 155.88867188 C-75.21312385 167.36321726 -75.29778314 178.83781441 -75.375 190.3125 C-79.335 190.3125 -83.295 190.3125 -87.375 190.3125 C-88.54708723 186.7962383 -88.4926521 183.65964733 -88.45729065 180.00434875 C-88.45406152 179.2544954 -88.45083239 178.50464204 -88.44750541 177.73206586 C-88.4354144 175.21235784 -88.41604485 172.69275793 -88.39672852 170.1730957 C-88.38658741 168.36972286 -88.37689356 166.56634746 -88.36761475 164.76296997 C-88.34111687 159.8603762 -88.30834078 154.95784188 -88.27446485 150.05529428 C-88.24013854 144.93436014 -88.21154817 139.81339411 -88.18235779 134.69242859 C-88.12618817 124.99206723 -88.06483581 115.29174581 -88.00163645 105.59142798 C-87.92994597 94.54927029 -87.86401036 83.5070806 -87.79856598 72.4648844 C-87.66379559 49.74738142 -87.52177272 27.02992838 -87.375 4.3125 C-83.085 4.3125 -78.795 4.3125 -74.375 4.3125 C-74.045 16.5225 -73.715 28.7325 -73.375 41.3125 C-70.405 36.8575 -70.405 36.8575 -67.375 32.3125 C-50.12248929 10.9099008 -27.49145869 -0.14776949 0 0 Z " fill="#DBEFF5" transform="translate(544.375,87.6875)"/>
<path d="M0 0 C3.96 0 7.92 0 12 0 C12.33 18.48 12.66 36.96 13 56 C46.66 56.495 46.66 56.495 81 57 C81 60.63 81 64.26 81 68 C58.23 68 35.46 68 12 68 C12.09066531 91.72567424 12.09066531 91.72567424 12.20898438 115.45117188 C12.26339707 125.13141146 12.31481319 134.8115989 12.34643555 144.49194336 C12.36948373 151.54323716 12.40295727 158.59439321 12.44870156 165.64557761 C12.47254232 169.37557878 12.49133074 173.1054443 12.49761391 176.83551979 C12.50484186 181.0100899 12.53535561 185.18419086 12.56762695 189.35864258 C12.56619186 190.58144424 12.56475677 191.80424591 12.5632782 193.06410217 C12.68792752 204.50720983 14.82323479 214.8323648 22 224 C32.6134932 233.87729714 44.44952246 233.66850166 58.25244141 233.20117188 C65.03073243 232.70487618 71.48336818 230.82729879 78 229 C79.66277244 228.64775479 81.32800054 228.30546144 83 228 C84.72436787 231.44873574 84.49224714 235.22841631 84 239 C79.07467236 244.87250603 68.13409409 245.29017556 61 246 C44.17373429 247.02123661 27.18192195 245.99903844 13.3125 235.375 C4.36937123 227.12956212 0.10698759 215.88504923 -1 204 C-1.14207047 199.60407774 -1.12630567 195.21061071 -1.11352539 190.81274414 C-1.11367142 189.49498993 -1.11381744 188.17723572 -1.1139679 186.81954956 C-1.11425373 183.22295755 -1.10839162 179.62639918 -1.10139394 176.02981496 C-1.09512475 172.26486842 -1.09455378 168.49992104 -1.09336853 164.73497009 C-1.09026571 157.61304479 -1.08206649 150.49113491 -1.07201904 143.36921638 C-1.06082528 135.25796505 -1.05533924 127.14671296 -1.05032361 119.03545582 C-1.03988298 102.3569601 -1.02155057 85.67848563 -1 69 C-14.53 69 -28.06 69 -42 69 C-42 65.04 -42 61.08 -42 57 C-28.14 57 -14.28 57 0 57 C0 38.19 0 19.38 0 0 Z " fill="#DDEFF5" transform="translate(802,35)"/>
<path d="M0 0 C4.29 0 8.58 0 13 0 C13 61.38 13 122.76 13 186 C8.71 186 4.42 186 0 186 C0 124.62 0 63.24 0 0 Z " fill="#D9EDF3" transform="translate(694,92)"/>
<path d="M0 0 C0.97608719 0.00946152 1.95217438 0.01892303 2.95783997 0.02867126 C6.17740844 0.06229274 9.39658736 0.11042391 12.6159668 0.15869141 C14.85083504 0.1848643 17.08571407 0.21013085 19.32060242 0.23452759 C25.19794376 0.30112183 31.07505787 0.38002727 36.95220947 0.46148682 C42.9513681 0.54246203 48.95065987 0.61180786 54.94995117 0.68212891 C66.71768889 0.82178114 78.48521935 0.97443815 90.25268555 1.13525391 C90.25268555 6.74525391 90.25268555 12.35525391 90.25268555 18.13525391 C77.03992462 18.20473919 63.8272071 18.25805782 50.61430073 18.29069042 C44.47912966 18.30635177 38.34408353 18.32759891 32.20898438 18.36157227 C26.28918923 18.39414853 20.36951432 18.41210339 14.44963646 18.41988564 C12.19017837 18.42543222 9.93072692 18.43626322 7.67131996 18.45244408 C4.50859945 18.47419494 1.34637692 18.47722176 -1.81640625 18.47583008 C-3.22010468 18.49200882 -3.22010468 18.49200882 -4.65216064 18.5085144 C-10.78906963 18.4792599 -14.28892988 17.59363848 -18.74731445 13.13525391 C-19.17821327 9.25716453 -19.40238762 7.03294677 -17.05981445 3.82275391 C-11.52943274 -0.21293004 -6.60352454 -0.11910491 0 0 Z " fill="#BCDFEC" transform="translate(30.747314453125,260.86474609375)"/>
<path d="M0 0 C1.64841133 0.0070546 1.64841133 0.0070546 3.3301239 0.01425171 C6.82880039 0.03555277 10.32594841 0.09218052 13.82421875 0.1484375 C16.19725142 0.16494724 18.57030018 0.17929463 20.94335938 0.19140625 C25.26362184 0.22536214 29.58373436 0.2598763 33.90356445 0.33056641 C34.77149124 0.34342682 35.63941803 0.35628723 36.53364563 0.36953735 C38.51171875 0.5234375 38.51171875 0.5234375 39.51171875 1.5234375 C39.61104267 3.83417918 39.64141493 6.14806692 39.63671875 8.4609375 C39.64058594 10.36166016 39.64058594 10.36166016 39.64453125 12.30078125 C39.51171875 15.5234375 39.51171875 15.5234375 38.51171875 17.5234375 C31.48262876 17.62490904 24.45372786 17.69493315 17.42407227 17.74316406 C15.03304994 17.76327168 12.64207674 17.7905618 10.2512207 17.82519531 C6.81319044 17.87374901 3.37581071 17.89641524 -0.0625 17.9140625 C-1.66432381 17.94503021 -1.66432381 17.94503021 -3.29850769 17.97662354 C-10.73225147 17.97886797 -10.73225147 17.97886797 -14.64501953 15.62182617 C-16.5155552 13.49238854 -17.29569269 12.36774511 -17.67578125 9.5859375 C-17.79308594 8.93753906 -17.91039063 8.28914062 -18.03125 7.62109375 C-17.30304858 4.80782639 -15.74510447 3.38326391 -13.51402283 1.59831238 C-9.32664084 -0.6235464 -4.62585485 -0.09896828 0 0 Z " fill="#BBDFEB" transform="translate(82.48828125,219.4765625)"/>
<path d="M0 0 C3.42717689 2.02543067 6.20750852 4.41501704 8 8 C9.08865459 18.52884514 9.08865459 18.52884514 5.6875 23.125 C-0.10333681 27.16511871 -3.94890995 28.14899378 -11 27 C-15.03367555 24.77234295 -17.53872491 22.38382527 -19 18 C-19.50201239 11.87544882 -19.09928344 8.87482354 -15 4 C-10.76799255 -0.72989068 -6.02346796 -1.274015 0 0 Z " fill="#E0F4F8" transform="translate(706,11)"/>
</svg>
